<svg xmlns="http://www.w3.org/2000/svg" width="149.621" height="157.502" viewBox="0 0 149.621 157.502">
  <g id="Group_220" data-name="Group 220" transform="translate(-130.233 -185.844)">
    <g id="_ÎÓÈ_2" data-name="—ÎÓÈ_2" transform="translate(130.233 185.844)">
      <path id="Path_412" data-name="Path 412" d="M231.068,850.061c-2.3-.586-3.157-1.3-2.087-2.153,7.438-5.96,41.62-6.129,58.2-6.292,20.853-.2,42.546-.581,61.365.66,7.875.519,25.7.889,28.8,2.848,8.148,5.147-48.631,7.164-57.825,7.329C304.2,852.729,244.187,853.409,231.068,850.061Z" transform="translate(-228.526 -695.2)" fill="#e5e5e5"/>
      <g id="Group_219" data-name="Group 219" transform="translate(2.436 0)">
        <path id="Path_413" data-name="Path 413" d="M372.009,539.4H249.325a3.026,3.026,0,0,1-3.016-2.791l-5.788-74.455a3.026,3.026,0,0,1,3.016-3.26H377.8a3.026,3.026,0,0,1,3.017,3.26l-5.788,74.455A3.025,3.025,0,0,1,372.009,539.4Z" transform="translate(-240.511 -390.438)" fill="#e3e3e3"/>
        <path id="Path_414" data-name="Path 414" d="M389.286,382.574l-60.157.691a3.076,3.076,0,0,1-2.353-1.053l-16.52-18.925a3.076,3.076,0,0,0-2.353-1.053l-47.011.54a3.077,3.077,0,0,0-3.038,3.211l3.977,91.045a3.077,3.077,0,0,0,3.109,2.942l122.343-1.406a3.076,3.076,0,0,0,3.04-2.985l2.074-69.839A3.076,3.076,0,0,0,389.286,382.574Z" transform="translate(-254.327 -313.426)" fill="#e3e3e3"/>
        <g id="Group_210" data-name="Group 210" transform="translate(5.51 51.273)">
          <path id="Path_415" data-name="Path 415" d="M401.355,397.857H341.194a3.077,3.077,0,0,1-2.341-1.08l-16.3-19.114a3.076,3.076,0,0,0-2.341-1.08H273.2a3.077,3.077,0,0,0-3.075,3.176l2.931,91.085a3.077,3.077,0,0,0,3.075,2.978H398.479a3.076,3.076,0,0,0,3.074-2.95l2.876-69.81A3.077,3.077,0,0,0,401.355,397.857Z" transform="translate(-269.612 -376.132)" fill="#e3e3e3"/>
          <g id="Group_209" data-name="Group 209">
            <path id="Path_416" data-name="Path 416" d="M399.4,395.7h-57.62c-.77,0-1.542.018-2.312,0a3.383,3.383,0,0,1-2.565-1.395c-5.222-6.123-10.4-12.287-15.668-18.371a4.021,4.021,0,0,0-3.172-1.509c-.886-.011-1.772,0-2.658,0h-40.2c-2.246,0-5.458-.556-6.949,1.551-.916,1.3-.593,3.143-.545,4.642q.337,10.476.674,20.953l.984,30.57q.434,13.488.868,26.975.127,3.938.253,7.876c.063,1.955-.095,4.141,2.071,5.122a9.322,9.322,0,0,0,3.685.319H395.144c.4,0,.8.011,1.193,0a3.682,3.682,0,0,0,3.678-2.962,36.338,36.338,0,0,0,.215-4.5l.447-10.846,1.247-30.275q.467-11.341.934-22.682c.024-.586.057-1.173.073-1.76a3.493,3.493,0,0,0-3.4-3.7c-.505-.022-.988.731-.328.76,3.3.144,2.712,3.494,2.621,5.722l-.4,9.681q-.606,14.708-1.212,29.416-.5,12.17-1,24.34c-.064,1.543.252,4.194-.97,5.356-.973.925-2.613.685-3.863.685H276.038c-1.758,0-3.805.2-4.388-2.056a17.633,17.633,0,0,1-.191-3.708q-.34-10.569-.68-21.137l-.977-30.344q-.427-13.271-.854-26.543-.125-3.871-.249-7.742c-.064-2-.422-4.8,2.474-4.937,2.031-.1,4.092,0,6.125,0h39.236c.572,0,1.162-.042,1.733,0,1.478.121,2.323,1.474,3.2,2.505l8.94,10.482c2,2.341,3.923,4.773,6,7.04,1.517,1.652,4.051,1.242,6.091,1.242h56.821C399.9,396.473,400.064,395.7,399.4,395.7Z" transform="translate(-267.62 -374.363)" fill="#0073dd"/>
          </g>
        </g>
        <g id="Group_212" data-name="Group 212" transform="translate(13.272 58.595)">
          <rect id="Rectangle_94" data-name="Rectangle 94" width="116.861" height="68.947" rx="9.967" transform="translate(0.52 0.244)" fill="#fff"/>
          <g id="Group_211" data-name="Group 211">
            <path id="Path_417" data-name="Path 417" d="M421.48,479.375H310.158c-1.4,0-3.151.161-3.331-1.818-.1-1.085-.009-2.215-.009-3.3V413.119c0-.908.068-2.074,1.219-2.288a3.174,3.174,0,0,1,.547,0H417.41c1.062,0,2.13-.03,3.192,0a2.012,2.012,0,0,1,2.1,1.957c.018.291,0,.589,0,.881V475.1c0,1.154.424,4.159-1.323,4.276-.264.018-1.067.442-.424.4a2.615,2.615,0,0,0,2.729-2.5c.011-.513,0-1.027,0-1.54V413.715c0-.386.021-.779,0-1.165a2.2,2.2,0,0,0-2.274-2.122c-2.951-.1-5.921,0-8.872,0h-103.4c-1.616,0-3.25.636-3.292,2.511-.034,1.519,0,3.042,0,4.561v56.327c0,1.272-.066,2.563,0,3.834.1,1.923,1.725,2.117,3.193,2.117H420.844C421.055,479.779,421.956,479.375,421.48,479.375Z" transform="translate(-305.808 -410.386)" fill="#0073dd"/>
          </g>
        </g>
        <g id="Group_214" data-name="Group 214" transform="translate(13.271 63.177)">
          <rect id="Rectangle_95" data-name="Rectangle 95" width="116.861" height="68.947" rx="9.967" transform="translate(0.52 0.252)" fill="#fff"/>
          <g id="Group_213" data-name="Group 213">
            <path id="Path_418" data-name="Path 418" d="M421.367,501.9H310.045c-1.44,0-3.1.128-3.227-1.934-.064-1.079,0-2.181,0-3.261V435.628c0-.945.118-2.045,1.33-2.224a3.784,3.784,0,0,1,.532,0H417.445c1.08,0,2.167-.034,3.247,0a1.974,1.974,0,0,1,2.005,1.935c.017.291,0,.589,0,.881v61.433c0,1.162.426,4.134-1.329,4.252-.292.02-1.059.491-.411.447a2.62,2.62,0,0,0,2.722-2.522c.011-.513,0-1.027,0-1.54V436.235c0-.378.021-.762,0-1.139a2.24,2.24,0,0,0-2.375-2.139c-2.92-.064-5.848,0-8.768,0H309.045c-1.613,0-3.172.7-3.209,2.544-.031,1.553,0,3.11,0,4.663v56.317c0,1.24-.067,2.5,0,3.739.1,1.953,1.792,2.131,3.284,2.131H420.956C421.255,502.351,422.019,501.9,421.367,501.9Z" transform="translate(-305.806 -432.929)" fill="#0073dd"/>
          </g>
        </g>
        <g id="Group_277" data-name="Group 277" transform="translate(20.376)">
          <g id="Group_239" data-name="Group 239" transform="translate(46.012 10.697)">
            <g id="Group_225" data-name="Group 225" transform="translate(0 0)">
              <path id="Path_423" data-name="Path 423" d="M652.164,376.851l-23.569,47.08a2.324,2.324,0,0,1-3.12,1.033l-42.419-21.235a2.324,2.324,0,0,1-1.043-3.117l3.673-7.338,2.059-4.027,22.382-44.709a2.324,2.324,0,0,1,3.12-1.033l33.38,16.71,5.541,16.626Z" transform="translate(-581.426 -342.944)" fill="#e5e5e5"/>
              <path id="Path_424" data-name="Path 424" d="M585.83,399.865l2.008-3.928,21.831-43.609a2.238,2.238,0,0,1,2.991-1.034l31.712,15.875.222.7-4.137,8.265a2.444,2.444,0,0,0,1.091,3.279l6.617,3.313a1.856,1.856,0,0,1,.829,2.491l-22.1,44.156A2.238,2.238,0,0,1,623.9,430.4l-40.688-20.368a2.238,2.238,0,0,1-.964-3.014Z" transform="translate(-581.621 -349.433)" fill="#fff"/>
              <g id="Group_223" data-name="Group 223">
                <path id="Path_425" data-name="Path 425" d="M650.142,375.249l-8.646,17.27-12.918,25.8-1.608,3.213c-.551,1.1-1.18,2.307-2.749,1.606-2.072-.926-4.079-2.042-6.109-3.058l-26.824-13.428-8.73-4.371c-.227-.113-.458-.22-.68-.341a2.31,2.31,0,0,1-1.126-2.973c.745-1.815,1.775-3.557,2.653-5.31,2.466-4.925,4.966-9.832,7.431-14.757l13.586-27.139,4.16-8.309c.55-1.1,1.235-2.135,2.737-1.447.86.394,1.7.849,2.542,1.272l25.55,12.791,4.181,2.093c.585.293.962.341,1.136.864l4.209,12.63.866,2.6a6.551,6.551,0,0,1,.34.989c-.064.134.7.074.805-.14.091-.193-.256-.846-.316-1.027l-.925-2.776-2.512-7.537-1.067-3.2a15.732,15.732,0,0,0-.646-1.939c-.225-.458-.844-.606-1.3-.834L619.02,345.2l-5.117-2.561c-.69-.346-1.377-.755-2.1-1.038a3.107,3.107,0,0,0-3.875,1.681l-1.395,2.786-13.008,25.984c-2.927,5.847-5.821,11.711-8.8,17.533q-1.147,2.244-2.274,4.5l-1.791,3.577a6.782,6.782,0,0,0-.913,2.187c-.144,1.5.954,2.179,2.08,2.743l3.5,1.75,26.965,13.5,9.889,4.951a7.765,7.765,0,0,0,2.034.885,3.173,3.173,0,0,0,3.386-1.936l10.8-21.58,11.846-23.664.693-1.384C651.011,374.98,650.248,375.036,650.142,375.249Z" transform="translate(-579.741 -341.402)" fill="#6a79a8"/>
              </g>
              <path id="Path_426" data-name="Path 426" d="M943.015,442.891l-4.467,8.923a2.444,2.444,0,0,0,1.091,3.279l8.923,4.467Z" transform="translate(-877.771 -425.761)" fill="#fff"/>
              <g id="Group_224" data-name="Group 224" transform="translate(60.18 16.954)">
                <path id="Path_427" data-name="Path 427" d="M940.953,442.1l-4.245,8.481c-.742,1.482-.549,3.044,1.044,3.866,1.475.761,2.97,1.487,4.455,2.23l4.311,2.158c.116.058.858-.047.792-.247l-4.843-14.554-.7-2.116c-.062-.185-.87.053-.815.218l4.844,14.554.7,2.116.792-.247-8.331-4.17a3.409,3.409,0,0,1-1.563-1.181,2.582,2.582,0,0,1,.024-2.585c.741-1.508,1.5-3,2.256-4.507l2.083-4.161C941.812,441.839,941.057,441.889,940.953,442.1Z" transform="translate(-936.291 -441.847)" fill="#6a79a8"/>
              </g>
            </g>
            <g id="Group_238" data-name="Group 238" transform="translate(12.505 19.73)">
              <g id="Group_228" data-name="Group 228" transform="translate(0 11.74)">
                <g id="Group_226" data-name="Group 226" transform="translate(0 0.218)">
                  <path id="Path_428" data-name="Path 428" d="M655.851,544.778c3.02-2.484,6.181-4.752,9.415-6.947a22.094,22.094,0,0,1,4.491-2.586c1.236-.466,2.635-.749,3.662.26a11.792,11.792,0,0,1,1.906,3.15,3.211,3.211,0,0,0,1.176,1.484,3.306,3.306,0,0,0,2.183.255,34.45,34.45,0,0,0,5.248-1.709c1.856-.641,3.707-1.3,5.536-2.014a87.268,87.268,0,0,0,12.171-5.981c.408-.239.953-.693.592-1.208-.321-.458-1.232-.4-1.653-.153a88.674,88.674,0,0,1-10.8,5.428c-1.861.771-3.753,1.46-5.655,2.122-.924.322-1.851.638-2.777.956a18.336,18.336,0,0,1-2.6.869c-.6.108-.768-.336-1.031-.827-.313-.587-.593-1.192-.91-1.777a5.542,5.542,0,0,0-2.63-2.684c-3.1-1.274-6.819.935-9.328,2.578a121.074,121.074,0,0,0-10.6,7.74c-1.28,1.053.694,1.791,1.6,1.044Z" transform="translate(-653.829 -529.14)" fill="#a1ebcf"/>
                </g>
                <g id="Group_227" data-name="Group 227" transform="translate(42.248)">
                  <path id="Path_429" data-name="Path 429" d="M905.286,530.209c.646-.04,1.291-.083,1.932-.169.326-.044.653-.1.976-.157l.321-.064q.633-.109.017-.073l-.528-.537.027.121.4-.936a11.885,11.885,0,0,0-1.926,2.033,9.391,9.391,0,0,0-1.284,2.911c-.163.614.708.895,1.149.873a1.4,1.4,0,0,0,1.336-1.029,6.832,6.832,0,0,1,1.406-2.666c.45-.527,1.5-1.046,1.366-1.842s-1.135-.893-1.766-.791c-1.088.175-2.131.357-3.237.425-.556.034-1.281.407-1.337,1.029s.631.9,1.149.873Z" transform="translate(-904.133 -527.851)" fill="#a1ebcf"/>
                </g>
              </g>
              <g id="Group_235" data-name="Group 235" transform="translate(1.797)">
                <g id="Group_229" data-name="Group 229" transform="translate(6.957 8.927)">
                  <path id="Path_430" data-name="Path 430" d="M741.209,528.677l-11.8-5.907-18.788-9.4-4.286-2.146c-.357-.179-.932.341-.464.575l11.8,5.907,18.788,9.4,4.286,2.145c.357.179.932-.341.464-.575Z" transform="translate(-705.695 -511.182)" fill="#6a79a6"/>
                </g>
                <g id="Group_230" data-name="Group 230" transform="translate(9.19 4.665)">
                  <path id="Path_431" data-name="Path 431" d="M754.576,503.409l-11.8-5.907-18.788-9.4-4.286-2.145c-.209-.1-.854.232-.769.275l11.8,5.907,18.788,9.4,4.286,2.145c.209.1.854-.232.769-.274Z" transform="translate(-718.924 -485.931)" fill="#6a79a6"/>
                </g>
                <g id="Group_231" data-name="Group 231" transform="translate(29.099 14.636)">
                  <path id="Path_432" data-name="Path 432" d="M837.685,567.608l9.7-19.382,1.378-2.753c.167-.334-.609-.664-.781-.319l-9.7,19.382-1.378,2.753c-.167.334.609.664.781.319Z" transform="translate(-836.88 -545.007)" fill="#6a79a6"/>
                </g>
                <g id="Group_232" data-name="Group 232" transform="translate(2.37 18.16)">
                  <path id="Path_433" data-name="Path 433" d="M714.131,583.369l-11.8-5.907-18.788-9.4-4.286-2.145c-.261-.13-1,.239-.642.418l11.8,5.907,18.788,9.4,4.286,2.145c.261.13,1-.238.642-.418Z" transform="translate(-678.518 -565.885)" fill="#6a79a6"/>
                </g>
                <g id="Group_233" data-name="Group 233" transform="translate(4.598 13.65)">
                  <path id="Path_434" data-name="Path 434" d="M727.234,556.659l-11.8-5.907-18.788-9.405L692.36,539.2c-.346-.173-.933.329-.467.562l11.8,5.907,18.788,9.4,4.286,2.145c.346.173.933-.329.467-.563Z" transform="translate(-691.72 -539.167)" fill="#6a79a6"/>
                </g>
                <g id="Group_234" data-name="Group 234">
                  <path id="Path_435" data-name="Path 435" d="M664.671,481.332l11.809,5.911,18.848,9.435,4.362,2.183a.52.52,0,0,0,.624-.231l9.841-19.659,1.388-2.773c.076-.152-.032-.275-.159-.338l-11.809-5.911-18.848-9.435-4.362-2.183a.519.519,0,0,0-.624.231L665.9,478.221l-1.388,2.773c-.211.422.613.447.783.108l9.841-19.659,1.388-2.773-.624.231,11.809,5.911,18.848,9.435,4.362,2.183-.159-.339-9.841,19.659-1.388,2.773.624-.231-11.809-5.911L669.5,482.946l-4.362-2.183C664.784,480.587,664.2,481.1,664.671,481.332Z" transform="translate(-664.478 -458.294)" fill="#6a79a6"/>
                </g>
              </g>
              <g id="Group_237" data-name="Group 237" transform="translate(25.416 31.15)">
                <rect id="Rectangle_97" data-name="Rectangle 97" width="10.122" height="10.122" transform="translate(0.408 9.303) rotate(-63.409)" fill="#fff"/>
                <g id="Group_236" data-name="Group 236">
                  <path id="Path_436" data-name="Path 436" d="M814.193,656.474l-9.051-4.531.061.227,4.531-9.051-.7.189,9.051,4.531-.061-.227-4.531,9.051c-.184.367.633.3.765.038l4.531-9.051a.153.153,0,0,0-.061-.227l-9.051-4.531a.6.6,0,0,0-.7.189l-4.531,9.051a.153.153,0,0,0,.061.227l9.051,4.531C813.808,657.019,814.549,656.653,814.193,656.474Z" transform="translate(-804.412 -642.849)" fill="#6a79a6"/>
                </g>
              </g>
            </g>
          </g>
          <g id="Group_262" data-name="Group 262" transform="translate(30.06)">
            <g id="Group_242" data-name="Group 242" transform="translate(0 0)">
              <path id="Path_437" data-name="Path 437" d="M548.922,302.177,538.63,353.811a2.324,2.324,0,0,1-2.737,1.821l-46.522-9.273a2.324,2.324,0,0,1-1.829-2.731l1.6-8.047.922-4.428,9.774-49.034a2.324,2.324,0,0,1,2.737-1.821l36.608,7.3,9.737,14.571Z" transform="translate(-487.114 -279.877)" fill="#e5e5e5"/>
              <path id="Path_438" data-name="Path 438" d="M489.208,342.9l.9-4.319,9.533-47.828a2.238,2.238,0,0,1,2.611-1.788l34.78,6.932.4.615-1.807,9.064a2.444,2.444,0,0,0,1.919,2.875L544.8,309.9a1.856,1.856,0,0,1,1.458,2.183L536.6,360.51a2.238,2.238,0,0,1-2.611,1.787L489.37,353.4a2.238,2.238,0,0,1-1.727-2.652Z" transform="translate(-487.198 -287.085)" fill="#fff"/>
              <g id="Group_240" data-name="Group 240">
                <path id="Path_439" data-name="Path 439" d="M546.655,300.23l-3.775,18.941-5.641,28.3-.7,3.524c-.243,1.221-.6,2.634-2.268,2.407-2.2-.3-4.406-.878-6.586-1.313l-29.257-5.832-9.759-1.945c-.27-.054-.546-.1-.814-.162a2.212,2.212,0,0,1-1.759-2.566c.3-2.011.8-4.012,1.2-6.005,1.075-5.392,2.188-10.775,3.262-16.167l5.906-29.631,1.8-9.021c.24-1.207.728-2.442,2.3-2.205.933.141,1.862.371,2.787.556l28.022,5.585,4.585.914c.338.068.681.125,1.017.2.153.035.091.059-.012-.045a2.185,2.185,0,0,1,.22.329l7.436,11.128,1.483,2.22c.144.215.279.439.432.647.117.16.1.291.13.138-.06.337.765.207.818-.092.043-.243-.438-.74-.556-.917l-1.592-2.383-4.4-6.592c-1.011-1.513-1.932-3.184-3.075-4.6-.346-.43-.93-.409-1.467-.516l-27.447-5.471c-2.647-.528-5.294-1.155-7.959-1.587a2.945,2.945,0,0,0-3.471,2.48l-.609,3.056-5.68,28.5c-1.267,6.358-2.5,12.726-3.819,19.073q-.523,2.509-1.023,5.022l-.771,3.867a8.15,8.15,0,0,0-.353,2.375c.183,1.577,1.517,2.058,2.832,2.32l3.778.753,29.381,5.856,11.016,2.2a11.522,11.522,0,0,0,2.1.365,2.973,2.973,0,0,0,2.936-2.692L542,327.609l5.173-25.953.3-1.518C547.539,299.806,546.715,299.932,546.655,300.23Z" transform="translate(-485.228 -278.026)" fill="#0073dd"/>
              </g>
              <path id="Path_440" data-name="Path 440" d="M783.921,322.884l-1.951,9.786a2.444,2.444,0,0,0,1.919,2.875l9.787,1.951Z" transform="translate(-731.845 -315.313)" fill="#fff"/>
              <g id="Group_241" data-name="Group 241" transform="translate(49.719 7.306)">
                <path id="Path_441" data-name="Path 441" d="M781.744,321.62,779.875,331a2.756,2.756,0,0,0,2.152,3.513c1.6.342,3.218.641,4.826.962l4.811.959c.185.037.827-.1.621-.407l-8.517-12.757-1.238-1.855c-.17-.254-.958.027-.753.333l8.517,12.757,1.238,1.855.621-.407-9.091-1.812a3.319,3.319,0,0,1-1.762-.683,2.51,2.51,0,0,1-.619-2.476l.989-4.962.893-4.481C782.632,321.189,781.806,321.312,781.744,321.62Z" transform="translate(-779.796 -321.311)" fill="#0073dd"/>
              </g>
            </g>
            <g id="Group_261" data-name="Group 261" transform="translate(7.947 12.569)">
              <g id="Group_247" data-name="Group 247" transform="translate(6.239 12.576)">
                <g id="Group_244" data-name="Group 244" transform="translate(0 0.648)">
                  <path id="Path_442" data-name="Path 442" d="M589.576,444.6a9.169,9.169,0,1,1-7.8-11.707.742.742,0,0,1,.642.884L581.26,439.6a2.453,2.453,0,0,0,1.927,2.886L589,443.646A.754.754,0,0,1,589.576,444.6Z" transform="translate(-571.216 -432.5)" fill="#79bfff"/>
                  <g id="Group_243" data-name="Group 243">
                    <path id="Path_443" data-name="Path 443" d="M587.243,442.891a8.77,8.77,0,0,1-11.331,5.788,9.029,9.029,0,0,1-5.366-11.235,8.833,8.833,0,0,1,4.426-5.08,8.575,8.575,0,0,1,3.3-.87c.589-.034,1.807-.179,1.794.655a2.16,2.16,0,0,1-.071.355l-.822,4.124c-.249,1.248-.606,2.517.341,3.6.877,1,2.461,1.073,3.686,1.317l2.519.5c.561.112,1.624.1,1.5.924-.061.415.772.311.826-.06.212-1.453-2.064-1.465-3.021-1.656l-2.573-.513a4.974,4.974,0,0,1-1.747-.5c-1.622-1.056-.812-3.156-.509-4.673l.507-2.544a2.961,2.961,0,0,0,.149-1.429c-.352-.976-1.947-.759-2.744-.692a9.81,9.81,0,0,0-3.4.92,9.636,9.636,0,0,0-4.782,5.076,9.5,9.5,0,0,0,4.869,12.065,9.767,9.767,0,0,0,13.226-5.981C588.163,442.536,587.351,442.54,587.243,442.891Z" transform="translate(-569.273 -430.84)" fill="#6a79a8"/>
                  </g>
                </g>
                <g id="Group_246" data-name="Group 246" transform="translate(11.924)">
                  <path id="Path_444" data-name="Path 444" d="M648.473,438.478l1.168.233a.993.993,0,0,0,1.184-.9,9.174,9.174,0,0,0-6.268-9.394,1,1,0,0,0-1.291.752l-.651,3.269-.124.621-.33,1.659a2.454,2.454,0,0,0,1.927,2.887l.83.165Z" transform="translate(-641.742 -428.137)" fill="#79bfff"/>
                  <g id="Group_245" data-name="Group 245">
                    <path id="Path_445" data-name="Path 445" d="M646.4,437.57c.836.167,1.8.506,2.539-.1,1.01-.829.436-3.117.123-4.172-.808-2.727-3.186-5.588-6.081-6.235-2.287-.511-2.275,2.671-2.567,4.137-.332,1.665-1.142,3.759.491,5a6.112,6.112,0,0,0,2.59.8l2.906.579c.267.053.96-.359.5-.451l-3.55-.707c-1.061-.211-2.048-.464-2.491-1.587A4.58,4.58,0,0,1,641,432.26l.724-3.635a2.922,2.922,0,0,1,.126-.634c.441-.924,1.775-.03,2.3.274a9.01,9.01,0,0,1,2.828,2.608,9.1,9.1,0,0,1,1.564,4.01c.082.609.411,2.37-.538,2.457a4.507,4.507,0,0,1-1.1-.22C646.631,437.066,645.938,437.478,646.4,437.57Z" transform="translate(-639.919 -427.003)" fill="#6a79a8"/>
                  </g>
                </g>
              </g>
              <rect id="Rectangle_99" data-name="Rectangle 99" width="2.85" height="24.327" rx="1.425" transform="translate(15.01 2.795) rotate(-78.729)" fill="#bfe1ff"/>
              <path id="Path_446" data-name="Path 446" d="M569.423,591.672l-36.265-7.227a1.055,1.055,0,0,1-.828-1.241l.145-.726a1.055,1.055,0,0,1,1.241-.828l36.265,7.227a1.055,1.055,0,0,1,.828,1.241l-.145.726A1.055,1.055,0,0,1,569.423,591.672Z" transform="translate(-532.309 -542.954)" fill="#e5e5e5"/>
              <g id="Group_258" data-name="Group 258" transform="translate(29.886 17.64)">
                <g id="Group_249" data-name="Group 249" transform="translate(2.538)">
                  <path id="Path_468" data-name="Path 468" d="M1.425,0h0A1.425,1.425,0,0,1,2.85,1.425V6.8A1.425,1.425,0,1,1,0,6.8V1.425A1.425,1.425,0,0,1,1.425,0Z" transform="translate(0.201 2.807) rotate(-78.729)" fill="#bfe1ff"/>
                  <g id="Group_248" data-name="Group 248">
                    <path id="Path_447" data-name="Path 447" d="M731.89,460.986l-2.836-.565a25.987,25.987,0,0,1-3.125-.623c-.845-.283-.769-1.082-.565-1.776.224-.76.774-.535,1.321-.426l3.9.778a11.059,11.059,0,0,1,1.342.267.952.952,0,0,1,.684,1.107c-.049.459-.171,1.289-.813,1.227-.323-.031-.862.424-.313.476a1.622,1.622,0,0,0,1.848-1.33c.193-.869.082-1.662-.892-1.931-1.409-.39-2.906-.579-4.34-.865-1.2-.239-3.059-.872-3.55.775-.225.756-.283,1.677.564,2.056a6.872,6.872,0,0,0,1.441.32l4.837.964C731.664,461.494,732.355,461.078,731.89,460.986Z" transform="translate(-724.408 -457.004)" fill="#0073dd"/>
                  </g>
                </g>
                <g id="Group_251" data-name="Group 251" transform="translate(0.727 9.084)">
                  <rect id="Rectangle_101" data-name="Rectangle 101" width="2.85" height="8.226" rx="1.425" transform="translate(0.201 2.807) rotate(-78.729)" fill="#bfe1ff"/>
                  <g id="Group_250" data-name="Group 250">
                    <path id="Path_448" data-name="Path 448" d="M721.164,514.807l-2.836-.565a26.072,26.072,0,0,1-3.125-.623c-.845-.283-.769-1.082-.565-1.776.224-.76.774-.536,1.321-.427l3.9.778a11.062,11.062,0,0,1,1.342.267.952.952,0,0,1,.684,1.107c-.049.459-.171,1.289-.813,1.227-.323-.031-.861.424-.313.476a1.622,1.622,0,0,0,1.848-1.33c.193-.87.082-1.662-.893-1.931-1.409-.39-2.906-.579-4.34-.865-1.2-.239-3.059-.872-3.55.775-.225.756-.283,1.676.565,2.057a6.875,6.875,0,0,0,1.441.32l4.837.964C720.938,515.315,721.629,514.9,721.164,514.807Z" transform="translate(-713.682 -510.825)" fill="#0073dd"/>
                  </g>
                </g>
                <g id="Group_254" data-name="Group 254" transform="translate(0 14.269)">
                  <g id="Group_252" data-name="Group 252" transform="translate(0 1.29)">
                    <path id="Path_449" data-name="Path 449" d="M709.518,549.605l7.6,1.515c.238.047.954-.326.507-.415l-7.6-1.515c-.238-.047-.954.326-.507.415Z" transform="translate(-709.374 -549.186)" fill="#0073dd"/>
                  </g>
                  <g id="Group_253" data-name="Group 253" transform="translate(0.246)">
                    <path id="Path_450" data-name="Path 450" d="M710.99,542l7.6,1.515c.268.053.96-.36.5-.452l-7.6-1.515c-.268-.053-.96.36-.5.452Z" transform="translate(-710.834 -541.545)" fill="#0073dd"/>
                  </g>
                </g>
                <g id="Group_257" data-name="Group 257" transform="translate(1.821 5.191)">
                  <g id="Group_255" data-name="Group 255" transform="translate(0 1.216)">
                    <path id="Path_451" data-name="Path 451" d="M720.312,495.391l7.6,1.515c.245.049.956-.333.5-.423l-7.6-1.515c-.245-.049-.956.334-.5.423Z" transform="translate(-720.165 -494.963)" fill="#0073dd"/>
                  </g>
                  <g id="Group_256" data-name="Group 256" transform="translate(0.274)">
                    <path id="Path_452" data-name="Path 452" d="M721.831,488.079l7.6,1.515c.191.038.894-.271.67-.316l-7.6-1.515c-.191-.038-.894.271-.67.316Z" transform="translate(-721.787 -487.76)" fill="#0073dd"/>
                  </g>
                </g>
              </g>
              <g id="Group_259" data-name="Group 259" transform="translate(10.692 5.301)">
                <path id="Path_453" data-name="Path 453" d="M626.567,389.964l-10.24-2.041-16.354-3.259-3.8-.757c-.444-.089-.783.559-.243.666l10.24,2.041,16.354,3.259,3.8.757c.444.088.783-.559.243-.666Z" transform="translate(-595.654 -383.899)" fill="#0073dd"/>
              </g>
              <g id="Group_260" data-name="Group 260" transform="translate(0.803 34.828)">
                <path id="Path_454" data-name="Path 454" d="M576.04,566.463,563.1,563.884l-20.606-4.107-4.7-.937c-.168-.033-.83.147-.712.17l12.942,2.579,20.606,4.107,4.7.937c.168.033.83-.147.712-.17Z" transform="translate(-537.066 -558.837)" fill="#0073dd"/>
              </g>
            </g>
          </g>
          <g id="Group_276" data-name="Group 276" transform="translate(0 16.761)">
            <g id="Group_265" data-name="Group 265" transform="translate(0)">
              <path id="Path_455" data-name="Path 455" d="M362.487,389.092l10.127,51.667a2.324,2.324,0,0,1-1.838,2.725l-46.551,9.125a2.324,2.324,0,0,1-2.731-1.83l-1.578-8.052-.832-4.445-9.617-49.065a2.324,2.324,0,0,1,1.838-2.725l36.631-7.18,14.548,9.771Z" transform="translate(-309.037 -378.977)" fill="#e5e5e5"/>
              <path id="Path_456" data-name="Path 456" d="M321.307,452.028l-.812-4.336-9.381-47.858a2.238,2.238,0,0,1,1.735-2.647l34.8-6.821.6.417,1.778,9.07a2.444,2.444,0,0,0,2.868,1.928l7.262-1.423a1.856,1.856,0,0,1,2.179,1.465l9.5,48.457a2.238,2.238,0,0,1-1.735,2.647l-44.651,8.752a2.238,2.238,0,0,1-2.606-1.8Z" transform="translate(-310.406 -388.166)" fill="#fff"/>
              <g id="Group_263" data-name="Group 263" transform="translate(0 0.017)">
                <path id="Path_457" data-name="Path 457" d="M360.149,387.5l3.25,16.581,5.367,27.382,1.42,7.243c.23,1.173.032,2.531-1.339,2.893-.638.169-1.309.257-1.956.383L342.5,446.761l-13.052,2.558c-2.3.451-4.6.973-6.916,1.356a2.13,2.13,0,0,1-2.1-.72,4.872,4.872,0,0,1-.7-2.217l-1.241-6.332c-.382-1.948-.725-3.9-1.107-5.85l-4.322-22.051-4.712-24.04c-.129-.656-.285-1.314-.387-1.975a2.169,2.169,0,0,1,1.9-2.616L319,383.082l25.253-4.95,1.684-.33-.317-.044,12.728,8.548a9.938,9.938,0,0,1,1.8,1.191c.052.238.871.036.815-.218-.047-.216-.722-.518-.885-.627l-2.429-1.631-6.595-4.429c-1.493-1-2.958-2.089-4.5-3.02-.491-.3-1.083-.043-1.624.063L317.546,383c-2.7.529-5.411,1.01-8.1,1.588A2.746,2.746,0,0,0,307.2,388l.6,3.058,5.589,28.515c1.247,6.362,2.532,12.718,3.724,19.091q.471,2.519.965,5.034l.758,3.869a6.978,6.978,0,0,0,.67,2.467c.835,1.264,2.208,1.165,3.484.915l3.724-.73,29.353-5.754,11.107-2.177c.642-.126,1.315-.211,1.945-.395a2.641,2.641,0,0,0,1.967-2.958c-.027-.175-.069-.35-.1-.524l-4.635-23.646-5.09-25.969-.3-1.519C360.918,387.043,360.1,387.238,360.149,387.5Z" transform="translate(-307.134 -377.431)" fill="#0073dd"/>
              </g>
              <path id="Path_458" data-name="Path 458" d="M537.288,378.5l1.919,9.793a2.444,2.444,0,0,0,2.868,1.928l9.793-1.919Z" transform="translate(-498.441 -378.302)" fill="#fff"/>
              <g id="Group_264" data-name="Group 264" transform="translate(38.437)">
                <path id="Path_459" data-name="Path 459" d="M534.864,377.637l1.839,9.381a2.774,2.774,0,0,0,3.415,2.381c1.621-.292,3.235-.634,4.852-.951l4.814-.944c.047-.009.64-.194.451-.321l-12.73-8.557-1.851-1.244c-.2-.137-.917.189-.764.291l12.73,8.557,1.851,1.244.451-.321-9.052,1.774a2.813,2.813,0,0,1-2.168-.136,2.669,2.669,0,0,1-1.17-1.924l-.973-4.965-.879-4.484C535.639,377.212,534.818,377.4,534.864,377.637Z" transform="translate(-534.862 -377.331)" fill="#0073dd"/>
              </g>
            </g>
            <g id="Group_275" data-name="Group 275" transform="translate(10.074 15.638)">
              <g id="Group_274" data-name="Group 274" transform="translate(0.131)">
                <g id="Group_268" data-name="Group 268" transform="translate(8.846)">
                  <path id="Path_462" data-name="Path 462" d="M448.78,469.994l-9.589,1.88-15.312,3c-1.184.232-12.369,2.464-13.553,2.7-.5.1-.375.553.122.456,3.2-.627,16.393-3.253,19.589-3.88l15.312-3,3.553-.7c.5-.1.375-.553-.122-.456Z" transform="translate(-420.005 -469.98)" fill="#6a79a8"/>
                </g>
                <g id="Group_269" data-name="Group 269" transform="translate(0.938 9.735)">
                  <path id="Path_463" data-name="Path 463" d="M411.743,527.673l-12.95,2.539-20.618,4.042-4.7.922c-.5.1-.38.523.114.426l12.95-2.539,20.618-4.042,4.7-.922c.5-.1.38-.523-.114-.426Z" transform="translate(-373.15 -527.658)" fill="#6a79a8"/>
                </g>
                <g id="Group_270" data-name="Group 270" transform="translate(0 4.943)">
                  <path id="Path_464" data-name="Path 464" d="M406.308,499.29l-12.95,2.539L372.74,505.87l-4.7.922c-.31.061-.734.383-.16.271l12.95-2.539,20.618-4.042,4.7-.922c.31-.061.734-.383.16-.271Z" transform="translate(-367.593 -499.266)" fill="#6a79a8"/>
                </g>
                <g id="Group_271" data-name="Group 271" transform="translate(2.919 19.8)">
                  <path id="Path_465" data-name="Path 465" d="M423.591,587.311l-12.95,2.539-20.618,4.042-4.7.922c-.344.067-.7.468-.137.357l12.95-2.539,20.618-4.042,4.7-.922c.344-.067.7-.468.137-.356Z" transform="translate(-384.886 -587.292)" fill="#6a79a8"/>
                </g>
                <g id="Group_272" data-name="Group 272" transform="translate(1.952 14.907)">
                  <path id="Path_466" data-name="Path 466" d="M417.749,558.312,404.8,560.85l-20.618,4.042-4.7.922c-.5.1-.379.531.116.434l12.95-2.539,20.618-4.042,4.7-.922c.5-.1.379-.531-.116-.434Z" transform="translate(-379.157 -558.298)" fill="#6a79a8"/>
                </g>
                <g id="Group_273" data-name="Group 273" transform="translate(3.871 24.647)">
                  <path id="Path_467" data-name="Path 467" d="M429.228,616.023l-12.95,2.539L395.66,622.6l-4.7.922c-.356.07-.694.5-.128.387l12.95-2.539,20.618-4.042,4.7-.922c.356-.07.694-.5.128-.388Z" transform="translate(-390.526 -616.004)" fill="#6a79a8"/>
                </g>
              </g>
            </g>
          </g>
        </g>
        <g id="Group_216" data-name="Group 216" transform="translate(2.55 68.181)">
          <path id="Path_419" data-name="Path 419" d="M386.929,539.4H264.245a3.025,3.025,0,0,1-3.016-2.791l-5.788-74.455a3.026,3.026,0,0,1,3.016-3.26h134.26a3.026,3.026,0,0,1,3.016,3.26l-5.788,74.455A3.026,3.026,0,0,1,386.929,539.4Z" transform="translate(-254.949 -458.62)" fill="#fff"/>
          <g id="Group_215" data-name="Group 215">
            <path id="Path_420" data-name="Path 420" d="M385.242,538.1H272.864c-3.4,0-6.836.16-10.23,0-2.608-.123-2.781-2.4-2.932-4.345q-.3-3.894-.605-7.787L257,498.99q-1.067-13.724-2.134-27.447l-.651-8.372c-.148-1.9-.681-4.966,2.17-5.113,2.936-.151,5.921,0,8.86,0H387.436c1.02,0,2.051-.043,3.071,0a2.938,2.938,0,0,1,2.848,3.128c-.015.429-.067.86-.1,1.288q-.759,9.767-1.519,19.535-1.138,14.643-2.277,29.286-.844,10.856-1.688,21.713c-.143,1.844.056,4.973-2.529,5.089-.307.014-1.058.5-.406.467a3.652,3.652,0,0,0,3.718-3.241c.053-.571.089-1.145.134-1.716q.319-4.112.639-8.224l2.158-27.753q1.062-13.659,2.124-27.317.3-3.9.607-7.807c.037-.479.087-.958.112-1.438a3.239,3.239,0,0,0-3.306-3.477c-2.969-.087-5.953,0-8.923,0h-122.9c-.8,0-1.615-.028-2.42,0a3.586,3.586,0,0,0-3.711,3.666c.02.454.071.909.106,1.363l1.569,20.184,2.323,29.877q.819,10.532,1.637,21.063c.046.588.083,1.178.137,1.765a3.273,3.273,0,0,0,3.318,3.055c.834.027,1.673,0,2.507,0H384.836C385.148,538.565,385.9,538.1,385.242,538.1Z" transform="translate(-253.06 -457.553)" fill="#0073dd"/>
          </g>
        </g>
        <g id="Group_218" data-name="Group 218" transform="translate(34.251 84.09)">
          <path id="Path_421" data-name="Path 421" d="M476.833,560.664a7.034,7.034,0,0,0-8.733-9.031,26.038,26.038,0,0,0-5.66-8.969c-5.28-5.076-13.337-7.2-20.224-4.35a21.5,21.5,0,0,0-7.971,5.907,26.016,26.016,0,0,0-2.986,4.281c-.213.382-2.144,4.683-2.075,4.7a13.04,13.04,0,0,0-2.4-.235c-8.461,0-15.346,7.361-15.346,16.407s6.884,16.407,15.346,16.407h17.837v-9a.642.642,0,0,0-.643-.642h-5.914a1.694,1.694,0,0,1-1.2-2.893l11.8-11.8a1.718,1.718,0,0,1,2.43,0l11.8,11.8a1.694,1.694,0,0,1-1.2,2.893h-6.176a.642.642,0,0,0-.642.642v9h20.863a12.581,12.581,0,0,0,1.085-25.115Z" transform="translate(-410.946 -536.792)" fill="#79bfff"/>
          <g id="Group_217" data-name="Group 217">
            <path id="Path_422" data-name="Path 422" d="M475.4,559.626a7.244,7.244,0,0,0-1.888-7.59,7.665,7.665,0,0,0-7.394-1.6l.55.09c-1.621-3.791-3.618-7.393-6.848-10.051a20.567,20.567,0,0,0-10.162-4.486c-7.989-1.111-15.326,3.223-19.683,9.756a24.8,24.8,0,0,0-1.969,3.664c-.3.668-.6,1.338-.889,2.012-.108.252-.374.648-.345.934l.8-.382c-9.694-1.693-18.206,6.382-18.533,15.9a17.157,17.157,0,0,0,4.984,12.775,15.639,15.639,0,0,0,11.215,4.41H442.5c.218,0,.687-.1.687-.39v-7.63c0-.874.247-2.033-.941-2.138s-2.451,0-3.652,0c-1.229,0-3.408.4-3.642-1.329-.129-.956.683-1.545,1.28-2.142l6.347-6.347,3.072-3.072a11.319,11.319,0,0,1,1.47-1.47c1.057-.705,1.744.253,2.42.929l2.713,2.713,6.684,6.684c.514.514,1.079,1.007,1.556,1.556a1.575,1.575,0,0,1-.041,2.3,2.57,2.57,0,0,1-1.441.173h-4.593c-.848,0-1.875.059-1.946,1.124-.179,2.67,0,5.408,0,8.084v.824c0,.112.229.127.295.127h15.941a39.6,39.6,0,0,0,7.547-.258c8.09-1.592,13.063-10.517,9.425-18.122a12.957,12.957,0,0,0-10.464-7.243c-.283-.028-1.144.448-.61.5a12.557,12.557,0,0,1,10.3,17.309A12.067,12.067,0,0,1,476,584.384a41.213,41.213,0,0,1-6.767.165H453.162l.294.127v-7.985a5.823,5.823,0,0,1,0-1.009c.068-.366-.067-.205.292-.259a6.683,6.683,0,0,1,.948,0c1.534,0,3.07.017,4.6,0,1.242-.014,2.665-.6,2.672-2.058,0-.912-.73-1.476-1.317-2.063l-6.6-6.6-3.171-3.171a12.065,12.065,0,0,0-1.491-1.447c-2.113-1.47-4.217,1.509-5.5,2.789l-7.047,7.047c-1.1,1.1-4.494,3.639-2.044,5.19.935.592,2.561.314,3.6.314h2.457c.547,0,1.22-.183,1.35.522a19.237,19.237,0,0,1,0,3.3v5.7l.687-.39H427.4a31.488,31.488,0,0,1-4.137-.117,14.375,14.375,0,0,1-6.2-2.39c-7.649-5.232-9.251-16.43-3.791-23.807a14.082,14.082,0,0,1,13.683-5.757c.213.037.827-.07.8-.382a3.934,3.934,0,0,1,.278-.657c.225-.531.46-1.058.694-1.585.369-.828.718-1.678,1.151-2.475a23.017,23.017,0,0,1,8.043-8.548c6.461-3.949,14.617-2.919,20.5,1.635,3.457,2.675,5.572,6.37,7.265,10.328.079.184.409.131.55.091,5.347-1.523,9.824,3.806,8.184,8.876C474.327,560.064,475.3,559.935,475.4,559.626Z" transform="translate(-409.027 -535.821)" fill="#0073dd"/>
          </g>
        </g>
      </g>
    </g>
  </g>
</svg>
