<?xml version="1.0" encoding="iso-8859-1"?>
<!-- Generator: Adobe Illustrator 19.0.0, SVG Export Plug-In . SVG Version: 6.00 Build 0)  -->
<svg version="1.1" id="Capa_1" xmlns="http://www.w3.org/2000/svg" xmlns:xlink="http://www.w3.org/1999/xlink" x="0px" y="0px"
	 viewBox="0 0 496 496" style="enable-background:new 0 0 496 496;" xml:space="preserve">
<path style="fill:#FFCB57;" d="M280,304l-24,40h-16l-24-40v-24l24-16v-8l-24-16v-16l24-16v-8l-24-16v-39.568
	c-23.688-11.792-40-36.176-40-64.424c0-39.768,32.232-72,72-72s72,32.232,72,72c0,28.256-16.312,52.64-40,64.424V304z"/>
<g>
	<path style="fill:#3F3A34;" d="M0,408c0,22.056,17.944,40,40,40h104v32h-32v16h272v-16h-32v-32h104c22.056,0,40-17.944,40-40v-24H0
		V408z M336,480H160v-32h176V480z M16,400h464v8c0,13.232-10.768,24-24,24H40c-13.232,0-24-10.768-24-24V400z"/>
	<path style="fill:#3F3A34;" d="M456,80H344v16h112c13.232,0,24,10.768,24,24v248h16V120C496,97.944,478.056,80,456,80z"/>
	<path style="fill:#3F3A34;" d="M16,120c0-13.232,10.768-24,24-24h112V80H40C17.944,80,0,97.944,0,120v248h16V120z"/>
	<path style="fill:#3F3A34;" d="M208,149.208v39.072L231.576,204L208,219.72v24.56L231.576,260L208,275.72v30.496L235.472,352
		h25.064L288,306.216V149.208c24.8-14.296,40-40.376,40-69.208c0-44.112-35.888-80-80-80s-80,35.888-80,80
		C168,108.832,183.2,134.912,208,149.208z M248,16c35.288,0,64,28.712,64,64c0,24.4-13.624,46.344-35.56,57.264l-4.44,2.208v162.312
		L251.472,336h-6.936L224,301.784V284.28l24-16v-16.56l-24-16v-7.44l24-16v-16.56l-24-16v-40.248l-4.44-2.208
		C197.624,126.344,184,104.4,184,80C184,44.712,212.712,16,248,16z"/>
	<path style="fill:#3F3A34;" d="M248,80c13.232,0,24-10.768,24-24s-10.768-24-24-24s-24,10.768-24,24S234.768,80,248,80z M248,48
		c4.416,0,8,3.592,8,8s-3.584,8-8,8s-8-3.592-8-8S243.584,48,248,48z"/>
</g>
<g>
	<path style="fill:#0b996e;" d="M376,208c0-32.384-12.12-63.288-34.128-87.016l-11.736,10.872C349.4,152.624,360,179.664,360,208
		c0,24.024-7.68,47.208-21.792,66.368C335.096,272.888,331.664,272,328,272c-13.232,0-24,10.768-24,24s10.768,24,24,24
		s24-10.768,24-24c0-3.688-0.904-7.144-2.392-10.264C366.648,263.48,376,236.256,376,208z M328,304c-4.416,0-8-3.584-8-8
		s3.584-8,8-8s8,3.584,8,8S332.416,304,328,304z"/>
	<path style="fill:#E56565;" d="M136,208c0-13.864,2.624-27.28,7.52-40.048c0.168,0,0.32,0.048,0.48,0.048c13.232,0,24-10.768,24-24
		s-10.768-24-24-24s-24,10.768-24,24c0,7.344,3.384,13.848,8.6,18.248C123,176.84,120,192.176,120,208
		c0,47.592,26.16,90.976,68.264,113.224l7.472-14.144C158.888,287.608,136,249.64,136,208z M144,136c4.416,0,8,3.592,8,8
		c0,4.408-3.584,8-8,8s-8-3.592-8-8C136,139.592,139.584,136,144,136z"/>
</g>
<g>
</g>
<g>
</g>
<g>
</g>
<g>
</g>
<g>
</g>
<g>
</g>
<g>
</g>
<g>
</g>
<g>
</g>
<g>
</g>
<g>
</g>
<g>
</g>
<g>
</g>
<g>
</g>
<g>
</g>
</svg>
